STARTFONT 2.1
FONT -Schumacher-Clean-Medium-R-Normal--8-80-75-75-P-56-iso8859-8
SIZE 8 75 75
FONTBOUNDINGBOX 6 8 0 -2
COMMENT "Generated by fontforge, http://fontforge.sourceforge.net"
STARTPROPERTIES 27
FONT_NAME "Hebrew-Large"
FONT_ASCENT 7
FONT_DESCENT 1
UNDERLINE_POSITION -100
UNDERLINE_THICKNESS 50
QUAD_WIDTH 8
X_HEIGHT 4
CAP_HEIGHT 6
FONTNAME_REGISTRY ""
FAMILY_NAME "Clean"
FOUNDRY "Schumacher"
WEIGHT_NAME "Medium"
SETWIDTH_NAME "Normal"
SLANT "R"
ADD_STYLE_NAME ""
PIXEL_SIZE 8
POINT_SIZE 80
RESOLUTION_X 75
RESOLUTION_Y 75
RESOLUTION 75
SPACING "P"
AVERAGE_WIDTH 56
CHARSET_REGISTRY "ISO8859"
CHARSET_ENCODING "-8"
CHARSET_COLLECTIONS "ASCII ISO8859-8 iso8859-8"
FULL_NAME "Large font with Hebrew Characters."
COPYRIGHT "Copyright 2002 (c) Meni Tito, Israel."
ENDPROPERTIES
CHARS 152
STARTCHAR space
ENCODING 32
SWIDTH 750 0
DWIDTH 6 0
BBX 1 1 0 0
BITMAP
00
ENDCHAR
STARTCHAR exclam
ENCODING 33
SWIDTH 1000 0
DWIDTH 4 0
BBX 1 7 2 0
BITMAP
80
80
80
80
80
00
80
ENDCHAR
STARTCHAR quotedbl
ENCODING 34
SWIDTH 1000 0
DWIDTH 4 0
BBX 3 2 1 5
BITMAP
A0
A0
ENDCHAR
STARTCHAR numbersign
ENCODING 35
SWIDTH 1000 0
DWIDTH 6 0
BBX 5 5 1 1
BITMAP
50
F8
50
F8
50
ENDCHAR
STARTCHAR dollar
ENCODING 36
SWIDTH 1000 0
DWIDTH 6 0
BBX 5 7 1 0
BITMAP
20
78
A0
70
28
F0
20
ENDCHAR
STARTCHAR percent
ENCODING 37
SWIDTH 1000 0
DWIDTH 6 0
BBX 5 7 1 0
BITMAP
C0
C8
10
20
40
98
18
ENDCHAR
STARTCHAR ampersand
ENCODING 38
SWIDTH 1000 0
DWIDTH 6 0
BBX 5 7 1 0
BITMAP
60
90
90
60
A8
90
68
ENDCHAR
STARTCHAR quotesingle
ENCODING 39
SWIDTH 1000 0
DWIDTH 5 0
BBX 2 2 2 5
BITMAP
40
80
ENDCHAR
STARTCHAR parenleft
ENCODING 40
SWIDTH 1000 0
DWIDTH 4 0
BBX 3 7 1 0
BITMAP
20
40
80
80
80
40
20
ENDCHAR
STARTCHAR parenright
ENCODING 41
SWIDTH 1000 0
DWIDTH 4 0
BBX 3 7 1 0
BITMAP
80
40
20
20
20
40
80
ENDCHAR
STARTCHAR asterisk
ENCODING 42
SWIDTH 1000 0
DWIDTH 6 0
BBX 5 5 1 1
BITMAP
20
A8
70
A8
20
ENDCHAR
STARTCHAR plus
ENCODING 43
SWIDTH 1000 0
DWIDTH 6 0
BBX 5 5 1 1
BITMAP
20
20
F8
20
20
ENDCHAR
STARTCHAR comma
ENCODING 44
SWIDTH 1000 0
DWIDTH 6 0
BBX 3 3 2 -1
BITMAP
60
60
C0
ENDCHAR
STARTCHAR hyphen
ENCODING 45
SWIDTH 1000 0
DWIDTH 5 0
BBX 4 1 1 3
BITMAP
F0
ENDCHAR
STARTCHAR period
ENCODING 46
SWIDTH 1000 0
DWIDTH 5 0
BBX 2 2 2 0
BITMAP
C0
C0
ENDCHAR
STARTCHAR slash
ENCODING 47
SWIDTH 1000 0
DWIDTH 5 0
BBX 4 8 1 -1
BITMAP
10
10
20
20
40
40
80
80
ENDCHAR
STARTCHAR zero
ENCODING 48
SWIDTH 1000 0
DWIDTH 6 0
BBX 5 7 1 0
BITMAP
70
88
98
A8
C8
88
70
ENDCHAR
STARTCHAR one
ENCODING 49
SWIDTH 1000 0
DWIDTH 6 0
BBX 2 7 2 0
BITMAP
40
C0
40
40
40
40
40
ENDCHAR
STARTCHAR two
ENCODING 50
SWIDTH 1000 0
DWIDTH 6 0
BBX 5 7 1 0
BITMAP
70
88
08
10
20
40
F8
ENDCHAR
STARTCHAR three
ENCODING 51
SWIDTH 1000 0
DWIDTH 6 0
BBX 5 7 1 0
BITMAP
70
88
08
30
08
88
70
ENDCHAR
STARTCHAR four
ENCODING 52
SWIDTH 1000 0
DWIDTH 6 0
BBX 5 7 1 0
BITMAP
10
30
50
90
F8
10
10
ENDCHAR
STARTCHAR five
ENCODING 53
SWIDTH 1000 0
DWIDTH 6 0
BBX 5 7 1 0
BITMAP
F8
80
F0
08
08
88
70
ENDCHAR
STARTCHAR six
ENCODING 54
SWIDTH 1000 0
DWIDTH 6 0
BBX 5 7 1 0
BITMAP
30
40
80
F0
88
88
70
ENDCHAR
STARTCHAR seven
ENCODING 55
SWIDTH 1000 0
DWIDTH 6 0
BBX 5 7 1 0
BITMAP
F8
88
08
10
10
20
20
ENDCHAR
STARTCHAR eight
ENCODING 56
SWIDTH 1000 0
DWIDTH 6 0
BBX 5 7 1 0
BITMAP
70
88
88
70
88
88
70
ENDCHAR
STARTCHAR nine
ENCODING 57
SWIDTH 1000 0
DWIDTH 6 0
BBX 5 7 1 0
BITMAP
70
88
88
78
08
10
60
ENDCHAR
STARTCHAR colon
ENCODING 58
SWIDTH 1000 0
DWIDTH 5 0
BBX 2 6 2 0
BITMAP
C0
C0
00
00
C0
C0
ENDCHAR
STARTCHAR semicolon
ENCODING 59
SWIDTH 1000 0
DWIDTH 5 0
BBX 3 7 1 -1
BITMAP
60
60
00
00
60
60
C0
ENDCHAR
STARTCHAR less
ENCODING 60
SWIDTH 1000 0
DWIDTH 7 0
BBX 6 5 1 1
BITMAP
0C
30
C0
30
0C
ENDCHAR
STARTCHAR equal
ENCODING 61
SWIDTH 1000 0
DWIDTH 6 0
BBX 5 3 1 2
BITMAP
F8
00
F8
ENDCHAR
STARTCHAR greater
ENCODING 62
SWIDTH 1000 0
DWIDTH 7 0
BBX 6 5 1 1
BITMAP
C0
30
0C
30
C0
ENDCHAR
STARTCHAR question
ENCODING 63
SWIDTH 1000 0
DWIDTH 6 0
BBX 5 7 1 0
BITMAP
70
88
08
30
40
00
40
ENDCHAR
STARTCHAR at
ENCODING 64
SWIDTH 1000 0
DWIDTH 6 0
BBX 5 7 1 0
BITMAP
70
88
B8
B8
B0
80
70
ENDCHAR
STARTCHAR A
ENCODING 65
SWIDTH 1000 0
DWIDTH 6 0
BBX 5 7 1 0
BITMAP
70
88
88
F8
88
88
88
ENDCHAR
STARTCHAR B
ENCODING 66
SWIDTH 1000 0
DWIDTH 6 0
BBX 5 7 1 0
BITMAP
F0
88
88
F0
88
88
F0
ENDCHAR
STARTCHAR C
ENCODING 67
SWIDTH 1000 0
DWIDTH 6 0
BBX 5 7 1 0
BITMAP
70
88
80
80
80
88
70
ENDCHAR
STARTCHAR D
ENCODING 68
SWIDTH 1000 0
DWIDTH 6 0
BBX 5 7 1 0
BITMAP
E0
90
88
88
88
90
E0
ENDCHAR
STARTCHAR E
ENCODING 69
SWIDTH 1000 0
DWIDTH 6 0
BBX 5 7 1 0
BITMAP
F8
80
80
F0
80
80
F8
ENDCHAR
STARTCHAR F
ENCODING 70
SWIDTH 1000 0
DWIDTH 6 0
BBX 5 7 1 0
BITMAP
F8
80
80
F0
80
80
80
ENDCHAR
STARTCHAR G
ENCODING 71
SWIDTH 1000 0
DWIDTH 6 0
BBX 5 7 1 0
BITMAP
70
88
80
98
88
88
78
ENDCHAR
STARTCHAR H
ENCODING 72
SWIDTH 1000 0
DWIDTH 6 0
BBX 5 7 1 0
BITMAP
88
88
88
F8
88
88
88
ENDCHAR
STARTCHAR I
ENCODING 73
SWIDTH 1000 0
DWIDTH 4 0
BBX 3 7 1 0
BITMAP
E0
40
40
40
40
40
E0
ENDCHAR
STARTCHAR J
ENCODING 74
SWIDTH 1000 0
DWIDTH 6 0
BBX 5 7 1 0
BITMAP
38
10
10
10
90
90
60
ENDCHAR
STARTCHAR K
ENCODING 75
SWIDTH 1000 0
DWIDTH 6 0
BBX 5 7 1 0
BITMAP
88
90
A0
C0
A0
90
88
ENDCHAR
STARTCHAR L
ENCODING 76
SWIDTH 1000 0
DWIDTH 6 0
BBX 5 7 1 0
BITMAP
80
80
80
80
80
80
F8
ENDCHAR
STARTCHAR M
ENCODING 77
SWIDTH 1000 0
DWIDTH 6 0
BBX 5 7 1 0
BITMAP
88
D8
A8
88
88
88
88
ENDCHAR
STARTCHAR N
ENCODING 78
SWIDTH 1000 0
DWIDTH 6 0
BBX 5 7 1 0
BITMAP
88
C8
C8
A8
98
98
88
ENDCHAR
STARTCHAR O
ENCODING 79
SWIDTH 1000 0
DWIDTH 6 0
BBX 5 7 1 0
BITMAP
70
88
88
88
88
88
70
ENDCHAR
STARTCHAR P
ENCODING 80
SWIDTH 1000 0
DWIDTH 6 0
BBX 5 7 1 0
BITMAP
F0
88
88
F0
80
80
80
ENDCHAR
STARTCHAR Q
ENCODING 81
SWIDTH 1000 0
DWIDTH 6 0
BBX 5 8 1 -1
BITMAP
70
88
88
88
88
A8
70
18
ENDCHAR
STARTCHAR R
ENCODING 82
SWIDTH 1000 0
DWIDTH 6 0
BBX 5 7 1 0
BITMAP
F0
88
88
F0
A0
90
88
ENDCHAR
STARTCHAR S
ENCODING 83
SWIDTH 1000 0
DWIDTH 6 0
BBX 5 7 1 0
BITMAP
70
88
80
70
08
88
70
ENDCHAR
STARTCHAR T
ENCODING 84
SWIDTH 1000 0
DWIDTH 6 0
BBX 5 7 1 0
BITMAP
F8
20
20
20
20
20
20
ENDCHAR
STARTCHAR U
ENCODING 85
SWIDTH 1000 0
DWIDTH 6 0
BBX 5 7 1 0
BITMAP
88
88
88
88
88
88
70
ENDCHAR
STARTCHAR V
ENCODING 86
SWIDTH 1000 0
DWIDTH 6 0
BBX 5 7 1 0
BITMAP
88
88
88
88
88
50
20
ENDCHAR
STARTCHAR W
ENCODING 87
SWIDTH 1000 0
DWIDTH 6 0
BBX 5 7 1 0
BITMAP
88
88
88
A8
A8
D8
88
ENDCHAR
STARTCHAR X
ENCODING 88
SWIDTH 1000 0
DWIDTH 6 0
BBX 5 7 1 0
BITMAP
88
88
50
20
50
88
88
ENDCHAR
STARTCHAR Y
ENCODING 89
SWIDTH 1000 0
DWIDTH 6 0
BBX 5 7 1 0
BITMAP
88
88
50
20
20
20
20
ENDCHAR
STARTCHAR Z
ENCODING 90
SWIDTH 1000 0
DWIDTH 6 0
BBX 5 7 1 0
BITMAP
F8
08
10
20
40
80
F8
ENDCHAR
STARTCHAR bracketleft
ENCODING 91
SWIDTH 1000 0
DWIDTH 4 0
BBX 3 7 1 0
BITMAP
E0
80
80
80
80
80
E0
ENDCHAR
STARTCHAR backslash
ENCODING 92
SWIDTH 1000 0
DWIDTH 5 0
BBX 4 8 1 -1
BITMAP
80
80
40
40
20
20
10
10
ENDCHAR
STARTCHAR bracketright
ENCODING 93
SWIDTH 1000 0
DWIDTH 4 0
BBX 3 7 1 0
BITMAP
E0
20
20
20
20
20
E0
ENDCHAR
STARTCHAR asciicircum
ENCODING 94
SWIDTH 1000 0
DWIDTH 6 0
BBX 5 3 1 4
BITMAP
20
50
88
ENDCHAR
STARTCHAR underscore
ENCODING 95
SWIDTH 1000 0
DWIDTH 6 0
BBX 6 1 0 0
BITMAP
FC
ENDCHAR
STARTCHAR grave
ENCODING 96
SWIDTH 1000 0
DWIDTH 3 0
BBX 2 2 1 5
BITMAP
80
40
ENDCHAR
STARTCHAR a
ENCODING 97
SWIDTH 1000 0
DWIDTH 6 0
BBX 5 5 1 0
BITMAP
78
88
88
98
68
ENDCHAR
STARTCHAR b
ENCODING 98
SWIDTH 1000 0
DWIDTH 6 0
BBX 5 7 1 0
BITMAP
80
80
F0
88
88
88
F0
ENDCHAR
STARTCHAR c
ENCODING 99
SWIDTH 1000 0
DWIDTH 6 0
BBX 5 5 1 0
BITMAP
70
88
80
88
70
ENDCHAR
STARTCHAR d
ENCODING 100
SWIDTH 1000 0
DWIDTH 6 0
BBX 5 7 1 0
BITMAP
08
08
78
88
88
88
78
ENDCHAR
STARTCHAR e
ENCODING 101
SWIDTH 1000 0
DWIDTH 6 0
BBX 5 5 1 0
BITMAP
70
88
F8
80
70
ENDCHAR
STARTCHAR f
ENCODING 102
SWIDTH 1000 0
DWIDTH 5 0
BBX 4 7 1 0
BITMAP
30
40
E0
40
40
40
40
ENDCHAR
STARTCHAR g
ENCODING 103
SWIDTH 1000 0
DWIDTH 6 0
BBX 5 6 1 -1
BITMAP
78
88
88
78
08
70
ENDCHAR
STARTCHAR h
ENCODING 104
SWIDTH 1000 0
DWIDTH 6 0
BBX 5 7 1 0
BITMAP
80
80
F0
88
88
88
88
ENDCHAR
STARTCHAR i
ENCODING 105
SWIDTH 1000 0
DWIDTH 4 0
BBX 3 7 1 0
BITMAP
40
00
C0
40
40
40
E0
ENDCHAR
STARTCHAR j
ENCODING 106
SWIDTH 1000 0
DWIDTH 5 0
BBX 4 8 1 -1
BITMAP
10
00
30
10
10
10
10
E0
ENDCHAR
STARTCHAR k
ENCODING 107
SWIDTH 1000 0
DWIDTH 5 0
BBX 4 7 1 0
BITMAP
80
80
90
A0
C0
A0
90
ENDCHAR
STARTCHAR l
ENCODING 108
SWIDTH 1000 0
DWIDTH 4 0
BBX 3 7 1 0
BITMAP
C0
40
40
40
40
40
E0
ENDCHAR
STARTCHAR m
ENCODING 109
SWIDTH 1000 0
DWIDTH 6 0
BBX 5 5 1 0
BITMAP
D0
A8
A8
A8
88
ENDCHAR
STARTCHAR n
ENCODING 110
SWIDTH 1000 0
DWIDTH 6 0
BBX 5 5 1 0
BITMAP
B0
C8
88
88
88
ENDCHAR
STARTCHAR o
ENCODING 111
SWIDTH 1000 0
DWIDTH 6 0
BBX 5 5 1 0
BITMAP
70
88
88
88
70
ENDCHAR
STARTCHAR p
ENCODING 112
SWIDTH 1000 0
DWIDTH 6 0
BBX 5 6 1 -1
BITMAP
F0
88
88
F0
80
80
ENDCHAR
STARTCHAR q
ENCODING 113
SWIDTH 1000 0
DWIDTH 6 0
BBX 5 6 1 -1
BITMAP
78
88
88
78
08
08
ENDCHAR
STARTCHAR r
ENCODING 114
SWIDTH 1000 0
DWIDTH 5 0
BBX 4 5 1 0
BITMAP
B0
C0
80
80
80
ENDCHAR
STARTCHAR s
ENCODING 115
SWIDTH 1000 0
DWIDTH 6 0
BBX 5 5 1 0
BITMAP
78
80
70
08
F0
ENDCHAR
STARTCHAR t
ENCODING 116
SWIDTH 1000 0
DWIDTH 5 0
BBX 4 7 1 0
BITMAP
40
40
E0
40
40
40
30
ENDCHAR
STARTCHAR u
ENCODING 117
SWIDTH 1000 0
DWIDTH 6 0
BBX 5 5 1 0
BITMAP
88
88
88
98
68
ENDCHAR
STARTCHAR v
ENCODING 118
SWIDTH 1000 0
DWIDTH 6 0
BBX 5 5 1 0
BITMAP
88
88
88
50
20
ENDCHAR
STARTCHAR w
ENCODING 119
SWIDTH 1000 0
DWIDTH 6 0
BBX 5 5 1 0
BITMAP
88
A8
A8
A8
50
ENDCHAR
STARTCHAR x
ENCODING 120
SWIDTH 1000 0
DWIDTH 6 0
BBX 5 5 1 0
BITMAP
88
50
20
50
88
ENDCHAR
STARTCHAR y
ENCODING 121
SWIDTH 1000 0
DWIDTH 6 0
BBX 5 5 1 0
BITMAP
88
88
78
08
70
ENDCHAR
STARTCHAR z
ENCODING 122
SWIDTH 1000 0
DWIDTH 6 0
BBX 5 5 1 0
BITMAP
F8
10
20
40
F8
ENDCHAR
STARTCHAR braceleft
ENCODING 123
SWIDTH 1000 0
DWIDTH 4 0
BBX 3 7 1 0
BITMAP
20
40
40
80
40
40
20
ENDCHAR
STARTCHAR bar
ENCODING 124
SWIDTH 1000 0
DWIDTH 4 0
BBX 1 7 2 0
BITMAP
80
80
80
00
80
80
80
ENDCHAR
STARTCHAR braceright
ENCODING 125
SWIDTH 1000 0
DWIDTH 4 0
BBX 3 7 1 0
BITMAP
80
40
40
20
40
40
80
ENDCHAR
STARTCHAR asciitilde
ENCODING 126
SWIDTH 1000 0
DWIDTH 6 0
BBX 5 3 1 4
BITMAP
40
A8
10
ENDCHAR
STARTCHAR cent
ENCODING 162
SWIDTH 1000 0
DWIDTH 6 0
BBX 5 6 1 0
BITMAP
20
78
A0
A0
78
20
ENDCHAR
STARTCHAR sterling
ENCODING 163
SWIDTH 1000 0
DWIDTH 6 0
BBX 5 7 1 0
BITMAP
30
48
40
F0
40
40
F8
ENDCHAR
STARTCHAR currency
ENCODING 164
SWIDTH 875 0
DWIDTH 7 0
BBX 5 5 1 1
BITMAP
88
70
50
70
88
ENDCHAR
STARTCHAR yen
ENCODING 165
SWIDTH 1000 0
DWIDTH 6 0
BBX 5 7 1 0
BITMAP
88
88
50
F8
20
F8
20
ENDCHAR
STARTCHAR brokenbar
ENCODING 166
SWIDTH 1000 0
DWIDTH 2 0
BBX 1 7 1 0
BITMAP
80
80
80
00
80
80
80
ENDCHAR
STARTCHAR section
ENCODING 167
SWIDTH 1000 0
DWIDTH 7 0
BBX 6 7 1 0
BITMAP
18
24
30
48
30
90
60
ENDCHAR
STARTCHAR dieresis
ENCODING 168
SWIDTH 1000 0
DWIDTH 5 0
BBX 4 1 1 6
BITMAP
90
ENDCHAR
STARTCHAR copyright
ENCODING 169
SWIDTH 1000 0
DWIDTH 7 0
BBX 6 7 1 0
BITMAP
30
48
B4
A4
B4
48
30
ENDCHAR
STARTCHAR multiply
ENCODING 170
SWIDTH 625 0
DWIDTH 5 0
BBX 3 3 1 2
BITMAP
A0
40
A0
ENDCHAR
STARTCHAR guillemotleft
ENCODING 171
SWIDTH 1000 0
DWIDTH 6 0
BBX 5 3 1 2
BITMAP
48
90
48
ENDCHAR
STARTCHAR logicalnot
ENCODING 172
SWIDTH 1000 0
DWIDTH 6 0
BBX 4 2 1 2
BITMAP
F0
10
ENDCHAR
STARTCHAR softhyphen
ENCODING 173
SWIDTH 750 0
DWIDTH 6 0
BBX 4 1 1 3
BITMAP
F0
ENDCHAR
STARTCHAR registered
ENCODING 174
SWIDTH 1000 0
DWIDTH 7 0
BBX 6 7 1 0
BITMAP
30
48
B4
A4
A4
48
30
ENDCHAR
STARTCHAR macron
ENCODING 175
SWIDTH 1000 0
DWIDTH 6 0
BBX 5 1 1 6
BITMAP
F8
ENDCHAR
STARTCHAR degree
ENCODING 176
SWIDTH 1000 0
DWIDTH 4 0
BBX 3 3 1 4
BITMAP
E0
A0
E0
ENDCHAR
STARTCHAR plusminus
ENCODING 177
SWIDTH 1000 0
DWIDTH 6 0
BBX 5 7 1 0
BITMAP
20
20
F8
20
20
00
F8
ENDCHAR
STARTCHAR uni00B2
ENCODING 178
SWIDTH 1000 0
DWIDTH 5 0
BBX 3 5 1 2
BITMAP
40
A0
20
40
E0
ENDCHAR
STARTCHAR uni00B3
ENCODING 179
SWIDTH 1000 0
DWIDTH 5 0
BBX 3 5 1 2
BITMAP
C0
20
C0
20
C0
ENDCHAR
STARTCHAR acute
ENCODING 180
SWIDTH 1000 0
DWIDTH 3 0
BBX 2 2 1 5
BITMAP
40
80
ENDCHAR
STARTCHAR mu
ENCODING 181
SWIDTH 1000 0
DWIDTH 6 0
BBX 5 6 1 -1
BITMAP
90
90
90
90
E8
80
ENDCHAR
STARTCHAR paragraph
ENCODING 182
SWIDTH 1000 0
DWIDTH 6 0
BBX 5 7 1 0
BITMAP
78
A8
A8
A8
68
28
28
ENDCHAR
STARTCHAR periodcentered
ENCODING 183
SWIDTH 1000 0
DWIDTH 5 0
BBX 1 1 2 3
BITMAP
80
ENDCHAR
STARTCHAR cedilla
ENCODING 184
SWIDTH 1000 0
DWIDTH 6 0
BBX 2 2 2 -1
BITMAP
40
C0
ENDCHAR
STARTCHAR uni00B9
ENCODING 185
SWIDTH 1000 0
DWIDTH 4 0
BBX 2 5 1 2
BITMAP
40
C0
40
40
40
ENDCHAR
STARTCHAR divide
ENCODING 186
SWIDTH 875 0
DWIDTH 7 0
BBX 5 5 1 1
BITMAP
20
00
F8
00
20
ENDCHAR
STARTCHAR guillemotright
ENCODING 187
SWIDTH 1000 0
DWIDTH 6 0
BBX 5 3 1 2
BITMAP
90
48
90
ENDCHAR
STARTCHAR onequarter
ENCODING 188
SWIDTH 1000 0
DWIDTH 8 0
BBX 6 7 1 0
BITMAP
80
88
90
20
54
9C
04
ENDCHAR
STARTCHAR onehalf
ENCODING 189
SWIDTH 1000 0
DWIDTH 8 0
BBX 6 7 1 0
BITMAP
80
88
90
28
54
88
1C
ENDCHAR
STARTCHAR threequarters
ENCODING 190
SWIDTH 1000 0
DWIDTH 8 0
BBX 6 7 1 0
BITMAP
C0
48
D0
20
54
9C
04
ENDCHAR
STARTCHAR underscoredbl
ENCODING 223
SWIDTH 750 0
DWIDTH 6 0
BBX 6 3 0 -1
BITMAP
FC
00
FC
ENDCHAR
STARTCHAR afii57664
ENCODING 224
SWIDTH 1000 0
DWIDTH 6 0
BBX 5 6 1 0
BITMAP
88
48
A8
90
88
88
ENDCHAR
STARTCHAR afii57665
ENCODING 225
SWIDTH 1000 0
DWIDTH 6 0
BBX 5 6 1 0
BITMAP
E0
10
10
10
10
F8
ENDCHAR
STARTCHAR afii57666
ENCODING 226
SWIDTH 1000 0
DWIDTH 4 0
BBX 3 6 1 0
BITMAP
C0
20
20
60
A0
A0
ENDCHAR
STARTCHAR afii57667
ENCODING 227
SWIDTH 1000 0
DWIDTH 6 0
BBX 5 6 1 0
BITMAP
F8
10
10
10
10
10
ENDCHAR
STARTCHAR afii57668
ENCODING 228
SWIDTH 1000 0
DWIDTH 6 0
BBX 5 6 1 0
BITMAP
F0
08
08
88
88
88
ENDCHAR
STARTCHAR afii57669
ENCODING 229
SWIDTH 1000 0
DWIDTH 3 0
BBX 2 6 1 0
BITMAP
80
40
40
40
40
40
ENDCHAR
STARTCHAR afii57670
ENCODING 230
SWIDTH 1000 0
DWIDTH 4 0
BBX 3 6 1 0
BITMAP
C0
60
40
40
40
40
ENDCHAR
STARTCHAR afii57671
ENCODING 231
SWIDTH 1000 0
DWIDTH 6 0
BBX 5 6 1 0
BITMAP
F0
88
88
88
88
88
ENDCHAR
STARTCHAR afii57672
ENCODING 232
SWIDTH 1000 0
DWIDTH 6 0
BBX 5 6 1 0
BITMAP
B0
A8
88
88
88
70
ENDCHAR
STARTCHAR afii57673
ENCODING 233
SWIDTH 1000 0
DWIDTH 3 0
BBX 2 3 1 3
BITMAP
80
40
40
ENDCHAR
STARTCHAR afii57674
ENCODING 234
SWIDTH 1000 0
DWIDTH 6 0
BBX 5 8 1 -2
BITMAP
F0
08
08
08
08
08
08
08
ENDCHAR
STARTCHAR afii57675
ENCODING 235
SWIDTH 1000 0
DWIDTH 6 0
BBX 5 6 1 0
BITMAP
F0
08
08
08
08
F0
ENDCHAR
STARTCHAR afii57676
ENCODING 236
SWIDTH 1000 0
DWIDTH 6 0
BBX 5 7 1 0
BITMAP
80
F0
08
08
08
10
20
ENDCHAR
STARTCHAR afii57677
ENCODING 237
SWIDTH 1000 0
DWIDTH 6 0
BBX 5 6 1 0
BITMAP
F0
88
88
88
88
F8
ENDCHAR
STARTCHAR afii57678
ENCODING 238
SWIDTH 1000 0
DWIDTH 6 0
BBX 5 6 1 0
BITMAP
B0
48
88
88
88
B8
ENDCHAR
STARTCHAR afii57679
ENCODING 239
SWIDTH 1000 0
DWIDTH 3 0
BBX 2 8 1 -2
BITMAP
80
40
40
40
40
40
40
40
ENDCHAR
STARTCHAR afii57680
ENCODING 240
SWIDTH 1000 0
DWIDTH 5 0
BBX 4 6 1 0
BITMAP
20
10
10
10
10
F0
ENDCHAR
STARTCHAR afii57681
ENCODING 241
SWIDTH 1000 0
DWIDTH 6 0
BBX 5 6 1 0
BITMAP
F8
88
88
88
88
70
ENDCHAR
STARTCHAR afii57682
ENCODING 242
SWIDTH 1000 0
DWIDTH 6 0
BBX 5 6 1 0
BITMAP
48
48
48
48
48
F0
ENDCHAR
STARTCHAR afii57683
ENCODING 243
SWIDTH 1000 0
DWIDTH 6 0
BBX 5 8 1 -2
BITMAP
F0
88
88
C8
08
08
08
08
ENDCHAR
STARTCHAR afii57684
ENCODING 244
SWIDTH 1000 0
DWIDTH 6 0
BBX 5 6 1 0
BITMAP
F0
88
88
C8
08
F8
ENDCHAR
STARTCHAR afii57685
ENCODING 245
SWIDTH 1000 0
DWIDTH 6 0
BBX 5 8 1 -2
BITMAP
88
88
50
60
40
40
40
40
ENDCHAR
STARTCHAR afii57686
ENCODING 246
SWIDTH 1000 0
DWIDTH 6 0
BBX 5 6 1 0
BITMAP
88
48
28
10
08
F8
ENDCHAR
STARTCHAR afii57687
ENCODING 247
SWIDTH 1000 0
DWIDTH 6 0
BBX 5 8 1 -2
BITMAP
F0
08
08
90
A0
80
80
80
ENDCHAR
STARTCHAR afii57688
ENCODING 248
SWIDTH 1000 0
DWIDTH 6 0
BBX 5 6 1 0
BITMAP
F0
08
08
08
08
08
ENDCHAR
STARTCHAR afii57689
ENCODING 249
SWIDTH 1000 0
DWIDTH 6 0
BBX 5 6 1 0
BITMAP
A8
A8
A8
C8
88
70
ENDCHAR
STARTCHAR afii57690
ENCODING 250
SWIDTH 1000 0
DWIDTH 6 0
BBX 5 6 1 0
BITMAP
70
48
48
48
48
C8
ENDCHAR
ENDFONT
